<svg xmlns="http://www.w3.org/2000/svg" viewBox="0 0 131.2 153.25"><defs><style>.cls-1{fill:#412415;}.cls-2{fill:#402612;}.cls-3{fill:#fba820;}.cls-4{fill:#ffeeca;}.cls-5{fill:#fff;}.cls-6{fill:#faa71b;}.cls-7{fill:#ffcc04;}.cls-8{fill:#f3eae5;}</style></defs><g id="Layer_2" data-name="Layer 2"><g id="Layer_1-2" data-name="Layer 1"><path class="cls-1" d="M126.94,3.46.05,17.41c0,12.77,0,87.72,0,128.34,0,4.49,3.63,7.5,8.06,7.5H124c5.25-.43,6.82-2.47,7.16-7L131.13,7.3A3.85,3.85,0,0,0,126.94,3.46Z"/><path class="cls-1" d="M30.49,127.13c0,7.59-6.81,13.73-15.22,13.73h0c-8.41,0-12.68-3.74-15.22,2.34V13.74C.05,6.16,6.86,0,15.27,0h0c8.41,0,15.22,6.15,15.22,13.73Z"/><path class="cls-2" d="M15.27,0a16.67,16.67,0,0,0-4.09.52V141.13a32.17,32.17,0,0,1,4.09-.24c8.41,0,15.22-6.15,15.22-13.73V13.77C30.49,6.19,23.68,0,15.27,0Z"/><path class="cls-3" d="M0,27.2V41q3.33-4.95,11.2-6.31V23.13A30.8,30.8,0,0,0,0,27.2Z"/><path class="cls-3" d="M0,114.6v13.84q3.33-4.95,11.2-6.31v-11.6A30.8,30.8,0,0,0,0,114.6Z"/><path class="cls-4" d="M1.79,146.67h0c0,2.77,3.48,5,7.77,5H122.09c3.83,0,6.94-2,6.94-4.48v-.53Z"/><path class="cls-5" d="M1.79,146.67h0c0-2.47,3.48-4.47,7.77-4.47H122.09c3.83,0,6.94,1.55,6.94,3.45v1Z"/><path class="cls-5" d="M122,142.22h-3.56v4.45H129v-9.06C128.57,139.29,125.91,142.2,122,142.22Z"/><path class="cls-6" d="M121.92,0H14.41V140.89H122a7,7,0,0,0,7-7V7.11A7.11,7.11,0,0,0,121.92,0Z"/><rect class="cls-7" x="14.41" width="54.09" height="140.89"/><circle class="cls-5" cx="68.5" cy="72.83" r="34.75"/><path class="cls-8" d="M68.5,38.09v69.49a34.75,34.75,0,0,0,0-69.49Z"/></g></g></svg>