<svg xmlns="http://www.w3.org/2000/svg" viewBox="0 0 51.88 61.31"><defs><style>.cls-1{fill:#ffcc04;}.cls-2{fill:#412414;}.cls-3{fill:#fff;}.cls-4{fill:#faa71b;}</style></defs><g id="Layer_2" data-name="Layer 2"><g id="Layer_1-2" data-name="Layer 1"><rect class="cls-1" x="4.57" y="1" width="46.3" height="59.31" rx="5"/><path class="cls-2" d="M45.87,61.31H9.57a6,6,0,0,1-6-6V6a6,6,0,0,1,6-6h36.3a6,6,0,0,1,6,6V55.31A6,6,0,0,1,45.87,61.31ZM9.57,2a4,4,0,0,0-4,4V55.31a4,4,0,0,0,4,4h36.3a4,4,0,0,0,4-4V6a4,4,0,0,0-4-4Z"/><path class="cls-3" d="M8.14,12.41a1.19,1.19,0,0,1-1.23,1.13H2.23A1.19,1.19,0,0,1,1,12.41V10.87A1.19,1.19,0,0,1,2.23,9.73H6.91a1.19,1.19,0,0,1,1.23,1.14Z"/><path class="cls-2" d="M6.91,14.54H2.23A2.19,2.19,0,0,1,0,12.41V10.87A2.19,2.19,0,0,1,2.23,8.73H6.91a2.19,2.19,0,0,1,2.23,2.14v1.54A2.19,2.19,0,0,1,6.91,14.54ZM2.23,10.73c-.15,0-.23.09-.23.14v1.54s.09.13.23.13H6.91c.15,0,.23-.09.23-.13V10.87c0-.06-.09-.14-.23-.14Z"/><path class="cls-3" d="M8.14,20a1.19,1.19,0,0,1-1.23,1.14H2.23A1.19,1.19,0,0,1,1,20V18.47a1.19,1.19,0,0,1,1.23-1.13H6.91a1.19,1.19,0,0,1,1.23,1.13Z"/><path class="cls-2" d="M6.91,22.15H2.23A2.19,2.19,0,0,1,0,20V18.47a2.19,2.19,0,0,1,2.23-2.13H6.91a2.19,2.19,0,0,1,2.23,2.13V20A2.19,2.19,0,0,1,6.91,22.15ZM2.23,18.34c-.15,0-.23.09-.23.13V20s.09.14.23.14H6.91c.15,0,.23-.09.23-.14V18.47s-.09-.13-.23-.13Z"/><path class="cls-3" d="M8.14,27.62a1.19,1.19,0,0,1-1.23,1.14H2.23A1.19,1.19,0,0,1,1,27.62V26.08A1.19,1.19,0,0,1,2.23,25H6.91a1.19,1.19,0,0,1,1.23,1.13Z"/><path class="cls-2" d="M6.91,29.76H2.23A2.19,2.19,0,0,1,0,27.62V26.08A2.19,2.19,0,0,1,2.23,24H6.91a2.19,2.19,0,0,1,2.23,2.13v1.54A2.19,2.19,0,0,1,6.91,29.76ZM2.23,26C2.08,26,2,26,2,26.08v1.54c0,.05.09.14.23.14H6.91c.15,0,.23-.09.23-.14V26.08S7.05,26,6.91,26Z"/><path class="cls-3" d="M8.14,35.23a1.19,1.19,0,0,1-1.23,1.14H2.23A1.19,1.19,0,0,1,1,35.23V33.69a1.19,1.19,0,0,1,1.23-1.13H6.91a1.19,1.19,0,0,1,1.23,1.13Z"/><path class="cls-2" d="M6.91,37.37H2.23A2.19,2.19,0,0,1,0,35.23V33.69a2.19,2.19,0,0,1,2.23-2.13H6.91a2.19,2.19,0,0,1,2.23,2.13v1.54A2.19,2.19,0,0,1,6.91,37.37ZM2.23,33.56c-.14,0-.23.08-.23.13v1.54c0,.05.09.14.23.14H6.91c.14,0,.23-.09.23-.14V33.69s-.09-.13-.23-.13Z"/><path class="cls-3" d="M8.14,42.84A1.18,1.18,0,0,1,6.91,44H2.23A1.18,1.18,0,0,1,1,42.84V41.3a1.19,1.19,0,0,1,1.23-1.13H6.91A1.19,1.19,0,0,1,8.14,41.3Z"/><path class="cls-2" d="M6.91,45H2.23A2.18,2.18,0,0,1,0,42.84V41.3a2.19,2.19,0,0,1,2.23-2.13H6.91A2.19,2.19,0,0,1,9.14,41.3v1.54A2.18,2.18,0,0,1,6.91,45Zm-4.68-3.8c-.14,0-.23.08-.23.13v1.54s.09.13.23.13H6.91c.14,0,.23-.08.23-.13V41.3s-.09-.13-.23-.13Z"/><path class="cls-3" d="M8.14,50.45a1.18,1.18,0,0,1-1.23,1.13H2.23A1.18,1.18,0,0,1,1,50.45V48.91a1.19,1.19,0,0,1,1.23-1.13H6.91a1.19,1.19,0,0,1,1.23,1.13Z"/><path class="cls-2" d="M6.91,52.58H2.23A2.18,2.18,0,0,1,0,50.45V48.91a2.18,2.18,0,0,1,2.23-2.13H6.91a2.18,2.18,0,0,1,2.23,2.13v1.54A2.18,2.18,0,0,1,6.91,52.58Zm-4.68-3.8c-.14,0-.23.08-.23.13v1.54s.09.13.23.13H6.91c.15,0,.23-.09.23-.13V48.91s-.09-.13-.23-.13Z"/><path class="cls-4" d="M44.62,38.18V60.31h1.25a5,5,0,0,0,5-5V38.18Z"/><path class="cls-2" d="M45.87,61.31H44.62a1,1,0,0,1-1-1V38.18a1,1,0,0,1,1-1h6.25a1,1,0,0,1,1,1V55.31A6,6,0,0,1,45.87,61.31Zm-.25-2h.25a4,4,0,0,0,4-4V39.18H45.62Z"/><path class="cls-2" d="M50.88,44.67H44.62a1,1,0,1,1,0-2h6.26a1,1,0,1,1,0,2Z"/><path class="cls-2" d="M50.88,50.38H44.62a1,1,0,0,1,0-2h6.26a1,1,0,0,1,0,2Z"/><path class="cls-2" d="M50.88,56.09H44.62a1,1,0,0,1,0-2h6.26a1,1,0,0,1,0,2Z"/><path class="cls-1" d="M35.35,38.8c-.23-1.56-.43-2.15-2.58-2.4a14.11,14.11,0,0,1-3.87-.79c-.83-.47-.69-2.83-.69-2.83H23.69s.13,2.37-.69,2.84a14.11,14.11,0,0,1-3.87.79c-2.15.25-2.35.84-2.58,2.4a24.35,24.35,0,0,0-.2,2.91h19.2A24.35,24.35,0,0,0,35.35,38.8Z"/><path class="cls-2" d="M15.55,41.71a1,1,0,0,1,0-.17,22.81,22.81,0,0,1,.2-2.86c.28-1.85.7-2.75,3.27-3l.2,0a14,14,0,0,0,3.36-.67,4.1,4.1,0,0,0,.31-2.12.77.77,0,0,1,.22-.58.75.75,0,0,1,.56-.25h4.52a.75.75,0,0,1,.56.25.77.77,0,0,1,.22.58,4.17,4.17,0,0,0,.3,2.11,14.15,14.15,0,0,0,3.4.68l.16,0c2.58.29,3,1.2,3.28,3a25.44,25.44,0,0,1,.2,3,.79.79,0,0,1-.23.56.75.75,0,0,1-.55.23H16.33A.78.78,0,0,1,15.55,41.71Zm19-2.79c-.2-1.34-.23-1.55-1.91-1.74l-.16,0a12.52,12.52,0,0,1-4-.87c-.84-.48-1.05-1.8-1.09-2.73H24.48c0,.93-.25,2.25-1.09,2.73a12.59,12.59,0,0,1-4,.87l-.19,0c-1.67.2-1.7.4-1.9,1.74a18.37,18.37,0,0,0-.17,2h17.6A18.37,18.37,0,0,0,34.58,38.92Z"/><path class="cls-1" d="M25.9,37.37s-2.65-1.9-2.9-1.76a14.11,14.11,0,0,1-3.87.79c-2.15.25-2.35.84-2.58,2.4a24.35,24.35,0,0,0-.2,2.91h19.2a24.35,24.35,0,0,0-.2-2.91c-.23-1.56-.43-2.15-2.58-2.4a14.11,14.11,0,0,1-3.87-.79C28.65,35.47,25.9,37.37,25.9,37.37Z"/><path class="cls-2" d="M15.55,41.71a1,1,0,0,1,0-.17,22.81,22.81,0,0,1,.2-2.86c.28-1.85.7-2.75,3.27-3l.2,0a13.71,13.71,0,0,0,3.37-.68.91.91,0,0,1,.42-.11c.22,0,.61,0,2.88,1.6,2.35-1.6,2.74-1.6,2.95-1.6a.92.92,0,0,1,.43.11,14.15,14.15,0,0,0,3.4.68l.16,0c2.58.29,3,1.2,3.28,3a25.44,25.44,0,0,1,.2,3,.79.79,0,0,1-.23.56.75.75,0,0,1-.55.23H16.33A.78.78,0,0,1,15.55,41.71Zm19-2.79c-.2-1.34-.23-1.55-1.91-1.74l-.16,0a15.43,15.43,0,0,1-3.68-.72A27.36,27.36,0,0,0,26.35,38a.8.8,0,0,1-.9,0,28.12,28.12,0,0,0-2.39-1.57,15.25,15.25,0,0,1-3.65.72l-.19,0c-1.67.2-1.7.4-1.9,1.74a18.37,18.37,0,0,0-.17,2h17.6A18.37,18.37,0,0,0,34.58,38.92Z"/><path class="cls-4" d="M21.5,36.07h0c-.9.17-1.88.28-2.37.33-2.15.25-2.35.84-2.58,2.4a24.35,24.35,0,0,0-.2,2.91h9Z"/><path class="cls-2" d="M15.55,41.71a1,1,0,0,1,0-.17,22.81,22.81,0,0,1,.2-2.86c.28-1.85.7-2.75,3.27-3l.21,0c.51-.05,1.35-.15,2.1-.3a.77.77,0,0,1,.79.33L26,41.27a.79.79,0,0,1-.65,1.22h-9A.78.78,0,0,1,15.55,41.71Zm5.59-4.78c-.65.11-1.29.18-1.71.23l-.21,0c-1.67.2-1.7.4-1.9,1.74a18.37,18.37,0,0,0-.17,2h6.71Z"/><path class="cls-4" d="M35.55,41.71a24.35,24.35,0,0,0-.2-2.91c-.23-1.56-.43-2.15-2.58-2.4-.49,0-1.48-.16-2.37-.33h0l-3.84,5.64Z"/><path class="cls-2" d="M25.76,41.71a.77.77,0,0,1,.23-.55l3.76-5.53a.79.79,0,0,1,.8-.33c.75.15,1.59.25,2.09.3l.21,0c2.58.29,3,1.2,3.28,3a25.44,25.44,0,0,1,.2,3,.79.79,0,0,1-.23.56.75.75,0,0,1-.55.23h-9A.78.78,0,0,1,25.76,41.71Zm8.82-2.79c-.2-1.34-.23-1.55-1.91-1.74l-.21,0c-.42,0-1.05-.12-1.7-.23l-2.72,4h6.71A18.37,18.37,0,0,0,34.58,38.92Z"/><path class="cls-4" d="M31.74,27.76A10.13,10.13,0,0,0,32,25.64a6,6,0,0,0-12.07,0,10,10,0,0,0,.25,2.11,1.39,1.39,0,0,0-.25,1.41,1.37,1.37,0,0,0,1.07,1C22,32.27,23.66,34,26,34s4-1.75,5-3.86a1.36,1.36,0,0,0,1-1A1.38,1.38,0,0,0,31.74,27.76Z"/><path class="cls-2" d="M20.44,30.83a2.26,2.26,0,0,1-1.28-1.43,2.3,2.3,0,0,1,.16-1.83,11.05,11.05,0,0,1-.19-1.93,6.82,6.82,0,0,1,13.64,0,11.26,11.26,0,0,1-.19,1.94,2.28,2.28,0,0,1,.16,1.82,2.25,2.25,0,0,1-1.24,1.41c-1.3,2.58-3.26,4-5.55,4S21.74,33.36,20.44,30.83Zm.25-5.19a8.63,8.63,0,0,0,.24,1.94.81.81,0,0,1-.22.73.65.65,0,0,0-.06.61.63.63,0,0,0,.41.46.79.79,0,0,1,.63.45c.6,1.27,2,3.4,4.26,3.4s3.69-2.13,4.28-3.4a.81.81,0,0,1,.61-.45.63.63,0,0,0,.41-.46.66.66,0,0,0-.06-.61A.76.76,0,0,1,31,27.6a9.27,9.27,0,0,0,.22-2,5.26,5.26,0,0,0-10.51,0Z"/></g></g></svg>