<svg xmlns="http://www.w3.org/2000/svg" viewBox="0 0 72.58 73.68"><defs><style>.cls-1{fill:#ffcc04;}.cls-2{fill:#412414;}.cls-3{fill:#1f1e1f;}.cls-4{fill:#faa71b;}</style></defs><g id="Layer_2" data-name="Layer 2"><g id="Layer_1-2" data-name="Layer 1"><path class="cls-1" d="M66.08,33.59A32.52,32.52,0,1,1,33.57,1.07,32.51,32.51,0,0,1,66.08,33.59Z"/><path class="cls-2" d="M33.57,67.1A33.52,33.52,0,1,1,67.08,33.59,33.55,33.55,0,0,1,33.57,67.1Zm0-65A31.52,31.52,0,1,0,65.08,33.59,31.56,31.56,0,0,0,33.57,2.07Z"/><path class="cls-2" d="M33.57,67.14c-7.25,0-12.94-14.75-12.94-33.57S26.32,0,33.57,0,46.5,14.75,46.5,33.57,40.82,67.14,33.57,67.14ZM33.57,2C28.29,2,22.63,14.69,22.63,33.57s5.66,31.57,10.94,31.57S44.5,52.45,44.5,33.57,38.85,2,33.57,2Z"/><rect class="cls-2" x="32.57" y="1" width="2" height="65.14"/><path class="cls-2" d="M33.57,51.62C15.06,51.62,0,43.53,0,33.57s15.06-18,33.57-18,33.57,8.1,33.57,18.05S52.08,51.62,33.57,51.62Zm0-34.1C16.16,17.52,2,24.72,2,33.57s14.16,16,31.57,16,31.57-7.2,31.57-16S51,17.52,33.57,17.52Z"/><rect class="cls-3" x="1" y="32.57" width="65.14" height="2"/><path class="cls-2" d="M33.57,67.14C19.48,67.14,8,52.08,8,33.57S19.48,0,33.57,0,59.12,15.06,59.12,33.57,47.66,67.14,33.57,67.14ZM33.57,2C20.58,2,10,16.16,10,33.57S20.58,65.14,33.57,65.14,57.12,51,57.12,33.57,46.56,2,33.57,2Z"/><path class="cls-4" d="M38.42,54.91c-2.28-2.3-2.76-2.71-2.83-2.78L35.48,52a.76.76,0,0,0-1.08,0L23.17,63.45a.77.77,0,0,0,0,1.08A35.76,35.76,0,0,0,30,70.7c.43.26.85.5,1.29.71a14.12,14.12,0,0,0,11.61,0C48.05,69.36,58,58.74,58,58.74S68.44,48.61,70.45,43.46a13.9,13.9,0,0,0-1-12.88,35.65,35.65,0,0,0-6.29-6.75.77.77,0,0,0-1.08,0L50.88,35.26a.76.76,0,0,0,0,1.08,1,1,0,0,0,.13.09s.47.56,2.81,2.8c3,2.86,4.9,2.43,4.9,2.43-.54,1.85-8.41,9.54-8.41,9.54s-7.56,8-9.4,8.57C40.93,59.77,41.25,57.78,38.42,54.91Z"/><path class="cls-2" d="M37,73.68a13.94,13.94,0,0,1-6.08-1.37,13.58,13.58,0,0,1-1.37-.76,36.11,36.11,0,0,1-7.09-6.38A1.67,1.67,0,0,1,22,64a1.76,1.76,0,0,1,.51-1.25L33.68,51.33a1.82,1.82,0,0,1,2.51,0l.11.11c.54.5,1.49,1.44,2.83,2.79a9.82,9.82,0,0,1,2.56,3.91,93.36,93.36,0,0,0,7.91-7.61,94.92,94.92,0,0,0,7.49-8A9.81,9.81,0,0,1,53.15,40c-1.79-1.72-2.51-2.46-2.76-2.74a1,1,0,0,1-.21-.17,1.76,1.76,0,0,1,0-2.48L61.4,23.13a1.8,1.8,0,0,1,2.49,0A35.75,35.75,0,0,1,70.32,30a14.82,14.82,0,0,1,1.06,13.78C69.32,49.12,59.13,59,58.69,59.46S48.57,70.22,43.31,72.38A16.89,16.89,0,0,1,37,73.68ZM24,64a34.36,34.36,0,0,0,6.52,5.86,12,12,0,0,0,1.19.66,13.15,13.15,0,0,0,10.8,0c4.86-2,14.62-12.36,14.72-12.46S67.61,48,69.52,43.1a12.93,12.93,0,0,0-.88-12,34,34,0,0,0-6-6.42L51.78,35.77h0s.52.6,2.74,2.73,3.52,2.17,3.9,2.17h.12a1,1,0,0,1,.92.32,1,1,0,0,1,.23.94c-.57,2-6.78,8.13-8.67,10s-7.86,8.22-9.81,8.81a1,1,0,0,1-.95-.2,1,1,0,0,1-.33-.91h0s.12-1.62-2.23-4c-.91-.92-2.12-2.13-2.75-2.71h0Z"/><path class="cls-2" d="M53.23,39.64a1,1,0,0,1-.69-.28,1,1,0,0,1,0-1.41L64.74,25.19a1,1,0,0,1,1.45,1.39L54,39.33A1,1,0,0,1,53.23,39.64Z"/><path class="cls-2" d="M25.78,68.27a1,1,0,0,1-.69-.28,1,1,0,0,1,0-1.42L37.29,53.82a1,1,0,1,1,1.44,1.39L26.51,68A1,1,0,0,1,25.78,68.27Z"/></g></g></svg>