<svg xmlns="http://www.w3.org/2000/svg" viewBox="0 0 50.53 70.17"><defs><style>.cls-1,.cls-5{fill:none;}.cls-1,.cls-2{stroke:#412312;}.cls-1,.cls-2,.cls-5{stroke-linecap:round;stroke-linejoin:round;}.cls-1,.cls-2,.cls-3,.cls-5{stroke-width:2px;}.cls-2{fill:#ffcc04;}.cls-3{fill:#faa71b;stroke:#412414;stroke-miterlimit:10;}.cls-4{fill:#412414;}.cls-5{stroke:#fff;}</style></defs><g id="Layer_2" data-name="Layer 2"><g id="Layer_1-2" data-name="Layer 1"><path class="cls-1" d="M41.68,24.22v-6a7.38,7.38,0,0,0-7.37-7.38H16.24a7.38,7.38,0,0,0-7.38,7.38V51.94a7.37,7.37,0,0,0,7.38,7.38H34.31a7.37,7.37,0,0,0,7.37-7.38V46"/><path class="cls-2" d="M36.16,41.59V37.81H20.49a1.27,1.27,0,0,1-1.27-1.27V33.65a1.27,1.27,0,0,1,1.27-1.27H36.16V28.56a1.13,1.13,0,0,1,1.7-1l11,6.41a1.28,1.28,0,0,1,0,2.21l-11,6.39A1.16,1.16,0,0,1,36.16,41.59Z"/><path class="cls-3" d="M20.23,67.18V3a2,2,0,0,0-2.9-1.76L2.06,9.29A2,2,0,0,0,1,11V57.27a2,2,0,0,0,.86,1.63l15.3,9.95A2,2,0,0,0,20.23,67.18Z"/><ellipse class="cls-4" cx="14.15" cy="36.53" rx="1.7" ry="3.4"/><path class="cls-5" d="M45.4,34.82a1.3,1.3,0,0,0-1.49-.06"/></g></g></svg>