<svg xmlns="http://www.w3.org/2000/svg" viewBox="0 0 67.83 70.35"><defs><style>.cls-1,.cls-3,.cls-6,.cls-7{fill:#ffcc04;}.cls-2{fill:#412312;}.cls-3,.cls-6,.cls-7{stroke:#412312;}.cls-3,.cls-4,.cls-8{stroke-linecap:round;}.cls-3,.cls-4,.cls-6,.cls-7,.cls-8{stroke-linejoin:round;}.cls-3,.cls-8{stroke-width:2px;}.cls-4,.cls-8{fill:none;stroke:#fff;}.cls-4,.cls-6{stroke-width:4.6px;}.cls-5{fill:#faa71b;}.cls-7{stroke-width:3px;}</style></defs><g id="Layer_2" data-name="Layer 2"><g id="Layer_1-2" data-name="Layer 1"><path class="cls-1" d="M25.15,68.05a7.45,7.45,0,0,1-7.45-7.44V9.74A7.45,7.45,0,0,1,25.15,2.3H48.61A2.31,2.31,0,0,1,50.24,3L64.85,17.59a2.32,2.32,0,0,1,.68,1.63V60.61a7.45,7.45,0,0,1-7.45,7.44Z"/><path class="cls-2" d="M48.61,4.6,63.23,19.22V60.61a5.15,5.15,0,0,1-5.15,5.14H25.15A5.14,5.14,0,0,1,20,60.61V9.74A5.14,5.14,0,0,1,25.15,4.6H48.61m0-4.6H25.15A9.75,9.75,0,0,0,15.4,9.74V60.61a9.75,9.75,0,0,0,9.75,9.74H58.08a9.76,9.76,0,0,0,9.75-9.74V19.22A4.64,4.64,0,0,0,66.48,16L51.86,1.35A4.56,4.56,0,0,0,48.61,0Z"/><path class="cls-2" d="M50.38,6.37,61.14,17.13H55.48a5.1,5.1,0,0,1-5.1-5.1V6.37m0-4.6a4.49,4.49,0,0,0-1.76.35,4.6,4.6,0,0,0-2.84,4.25V12a9.71,9.71,0,0,0,9.7,9.7h5.66a4.6,4.6,0,0,0,3.25-7.86L53.63,3.11a4.6,4.6,0,0,0-3.25-1.34Z"/><line class="cls-3" x1="29.87" y1="26.92" x2="53.37" y2="26.92"/><line class="cls-3" x1="29.87" y1="35.58" x2="53.37" y2="35.58"/><line class="cls-3" x1="29.87" y1="44.25" x2="53.37" y2="44.25"/><line class="cls-3" x1="29.87" y1="52.92" x2="53.37" y2="52.92"/><line class="cls-4" x1="29.94" y1="10.59" x2="39.21" y2="10.59"/><path class="cls-1" d="M34.9,60.3a3.77,3.77,0,0,0,3.68-4.53L37,48.07A7.47,7.47,0,0,0,35,44.25L15.15,24.44a5.35,5.35,0,0,0-7.56,0L2.91,29.13a5.35,5.35,0,0,0,0,7.56l19.81,19.8a7.67,7.67,0,0,0,3.8,2.08l7.58,1.64a3.72,3.72,0,0,0,.81.09Z"/><path class="cls-2" d="M11.37,24.22a4,4,0,0,0-2.84,1.17L3.85,30.07a4,4,0,0,0,0,5.67l19.8,19.81a6.35,6.35,0,0,0,3.14,1.71l7.59,1.64a2.37,2.37,0,0,0,.52.06A2.43,2.43,0,0,0,37.27,56l-1.57-7.7A6.35,6.35,0,0,0,34,45.19L14.2,25.39a4,4,0,0,0-2.83-1.17m0-2.68a6.67,6.67,0,0,1,4.73,2L35.9,43.3a8.87,8.87,0,0,1,2.42,4.5l1.58,7.71a5.11,5.11,0,0,1-5,6.13,5.06,5.06,0,0,1-1.09-.12l-7.58-1.64a9.08,9.08,0,0,1-4.47-2.44L2,37.64a6.69,6.69,0,0,1,0-9.46L6.64,23.5a6.65,6.65,0,0,1,4.73-2Z"/><rect class="cls-5" x="13.92" y="33.03" width="6.46" height="23.36" transform="translate(-26.59 25.22) rotate(-45)"/><line class="cls-6" x1="23.62" y1="55.98" x2="34.65" y2="44.94"/><line class="cls-6" x1="5.96" y1="38.32" x2="16.99" y2="27.28"/><path class="cls-2" d="M34.38,58.9,31,58.16l5.6-5.6L37.27,56A2.42,2.42,0,0,1,34.38,58.9Z"/><line class="cls-7" x1="28.44" y1="49.98" x2="11.72" y2="33.26"/><path class="cls-8" d="M11.89,27.19a1.27,1.27,0,0,0-1.48-.06"/></g></g></svg>