<svg xmlns="http://www.w3.org/2000/svg" viewBox="0 0 68.35 72.7"><defs><style>.cls-1{fill:#ffcb05;}.cls-2{fill:#42210b;}.cls-3{fill:#faa61a;}.cls-4{fill:none;stroke:#fff;stroke-linecap:round;stroke-linejoin:round;stroke-width:4.6px;}</style></defs><g id="Layer_2" data-name="Layer 2"><g id="Layer_1-2" data-name="Layer 1"><path class="cls-1" d="M14.32,54.12a7.58,7.58,0,0,1-7.57-7.57V18a7.58,7.58,0,0,1,7.57-7.57H59.93a6.12,6.12,0,0,1,5.23,9.3l-6.69,11a3.24,3.24,0,0,0,0,3.38l6.63,10.72a6.09,6.09,0,0,1-5.18,9.29Z"/><path class="cls-2" d="M59.93,12.73a3.82,3.82,0,0,1,3.26,5.81l-6.69,11a5.55,5.55,0,0,0,0,5.8L63.15,46a3.78,3.78,0,0,1-3.22,5.78H14.32a5.27,5.27,0,0,1-5.27-5.27V18a5.28,5.28,0,0,1,5.27-5.28H59.93m0-4.6H14.32A9.89,9.89,0,0,0,4.45,18V46.55a9.88,9.88,0,0,0,9.87,9.87H59.93a8.38,8.38,0,0,0,7.13-12.8L60.44,32.91a1,1,0,0,1,0-1l6.69-11A8.43,8.43,0,0,0,59.93,8.13Z"/><path class="cls-3" d="M38.27,12.73h-24A5.28,5.28,0,0,0,9.05,18V46.55a5.27,5.27,0,0,0,5.27,5.27h24Z"/><path class="cls-3" d="M4.6,70.4a2.3,2.3,0,0,1-2.3-2.3V8.62a6.32,6.32,0,0,1,12.64,0V68.1a2.29,2.29,0,0,1-2.3,2.3Z"/><path class="cls-2" d="M8.62,4.6a4,4,0,0,1,4,4V68.1h-8V13.88h0V8.62a4,4,0,0,1,4-4m0-4.6A8.63,8.63,0,0,0,0,8.62v5.26H0V68.1a4.6,4.6,0,0,0,4.6,4.6h8a4.6,4.6,0,0,0,4.6-4.6V8.62A8.63,8.63,0,0,0,8.62,0Z"/><line class="cls-4" x1="25.46" y1="19.75" x2="49.64" y2="19.75"/></g></g></svg>