<svg xmlns="http://www.w3.org/2000/svg" viewBox="0 0 73.09 89.69"><defs><style>.cls-1{fill:#faa61a;}.cls-2{fill:#42210b;}.cls-3,.cls-5{fill:#ffcb05;}.cls-3{stroke:#42210b;}.cls-3,.cls-4{stroke-linecap:round;stroke-linejoin:round;stroke-width:4.6px;}.cls-4{fill:none;stroke:#fff;}</style></defs><g id="Layer_2" data-name="Layer 2"><g id="Layer_1-2" data-name="Layer 1"><rect class="cls-1" x="2.3" y="2.3" width="47.83" height="65.75" rx="7.45"/><path class="cls-2" d="M42.68,4.6a5.16,5.16,0,0,1,5.15,5.15V60.61a5.15,5.15,0,0,1-5.15,5.14H9.75A5.14,5.14,0,0,1,4.6,60.61V9.75A5.15,5.15,0,0,1,9.75,4.6H42.68m0-4.6H9.75A9.76,9.76,0,0,0,0,9.75V60.61a9.75,9.75,0,0,0,9.75,9.74H42.68a9.76,9.76,0,0,0,9.75-9.74V9.75A9.76,9.76,0,0,0,42.68,0Z"/><line class="cls-3" x1="16.04" y1="11.79" x2="36.87" y2="11.79"/><line class="cls-4" x1="12.22" y1="52.73" x2="12.22" y2="22.08"/><path class="cls-5" d="M30.41,87.39A7.45,7.45,0,0,1,23,79.94V29.08a7.45,7.45,0,0,1,7.44-7.44H53.88a2.29,2.29,0,0,1,1.62.67L70.12,36.92a2.33,2.33,0,0,1,.67,1.63V79.94a7.46,7.46,0,0,1-7.45,7.45Z"/><path class="cls-2" d="M53.88,23.94,68.49,38.55V79.94a5.15,5.15,0,0,1-5.15,5.15H30.41a5.15,5.15,0,0,1-5.14-5.15V29.08a5.14,5.14,0,0,1,5.14-5.14H53.88m0-4.6H30.41a9.75,9.75,0,0,0-9.74,9.74V79.94a9.75,9.75,0,0,0,9.74,9.75H63.34a9.76,9.76,0,0,0,9.75-9.75V38.55a4.59,4.59,0,0,0-1.34-3.25L57.13,20.68a4.59,4.59,0,0,0-3.25-1.34Z"/><path class="cls-2" d="M55.64,25.7,66.4,36.46H60.75a5.1,5.1,0,0,1-5.11-5.1V25.7m0-4.6a4.53,4.53,0,0,0-1.76.35A4.6,4.6,0,0,0,51,25.7v5.66a9.72,9.72,0,0,0,9.71,9.7H66.4a4.6,4.6,0,0,0,3.26-7.85L58.9,22.45a4.61,4.61,0,0,0-3.26-1.35Z"/><line class="cls-3" x1="35.13" y1="46.25" x2="58.63" y2="46.25"/><line class="cls-3" x1="35.13" y1="54.92" x2="58.63" y2="54.92"/><line class="cls-3" x1="35.13" y1="63.59" x2="58.63" y2="63.59"/><line class="cls-3" x1="35.13" y1="72.25" x2="58.63" y2="72.25"/><line class="cls-4" x1="35.2" y1="29.93" x2="44.48" y2="29.93"/></g></g></svg>