<svg xmlns="http://www.w3.org/2000/svg" viewBox="0 0 78.62 48.45"><defs><style>.cls-1{fill:#faa71b;}.cls-2{fill:#191f33;}.cls-3,.cls-7{fill:#ffcc04;}.cls-4{fill:#292f47;}.cls-5{fill:#f89722;}.cls-6{fill:#fee73d;}.cls-7{opacity:0.4;}.cls-8{fill:none;stroke:#412414;stroke-miterlimit:10;stroke-width:2px;}</style></defs><g id="Layer_2" data-name="Layer 2"><g id="Layer_1-2" data-name="Layer 1"><rect class="cls-1" x="3.2" y="1" width="73.42" height="46.45" rx="3.68"/><rect class="cls-2" x="3.2" y="11.7" width="73.42" height="7.1"/><rect class="cls-3" x="1.45" y="1" width="73.42" height="46.45" rx="3.68"/><rect class="cls-4" x="1.45" y="11.7" width="73.42" height="7.1"/><rect class="cls-1" x="5.49" y="25.45" width="24.06" height="2.62"/><rect class="cls-1" x="5.49" y="31.7" width="19.08" height="2.62"/><rect class="cls-1" x="26.52" y="31.7" width="15.17" height="2.62"/><rect class="cls-1" x="16.33" y="37.96" width="25.36" height="2.62"/><rect class="cls-1" x="5.49" y="37.96" width="8.96" height="2.62"/><path class="cls-5" d="M60.58,33a6,6,0,1,1-6-6A6,6,0,0,1,60.58,33Z"/><path class="cls-6" d="M70.43,33a6,6,0,1,1-6-6A6,6,0,0,1,70.43,33Z"/><path class="cls-7" d="M74,3.53A5.25,5.25,0,0,0,69.52,1H6.8A5.5,5.5,0,0,0,1.45,6.65V41.79a5.83,5.83,0,0,0,1.16,3.49Z"/><rect class="cls-8" x="1" y="1" width="76.62" height="46.45" rx="3.68"/></g></g></svg>