<svg xmlns="http://www.w3.org/2000/svg" xmlns:xlink="http://www.w3.org/1999/xlink" viewBox="0 0 576.86 576.86"><defs><style>.cls-1{fill:#fff;}.cls-2{font-size:33.9px;font-family:MyriadPro-Regular, Myriad Pro;}.cls-2,.cls-7{fill:#231f20;}.cls-3{letter-spacing:0.01em;}.cls-4{letter-spacing:0.01em;}.cls-5{letter-spacing:0em;}.cls-6{letter-spacing:-0.01em;}.cls-7{font-size:63.46px;font-family:ProximaNova-Extrabld, Proxima Nova;}.cls-8{letter-spacing:-0.06em;}.cls-9{letter-spacing:0em;}.cls-10{fill:url(#linear-gradient);}.cls-11{fill:url(#linear-gradient-2);}.cls-12{fill:url(#linear-gradient-3);}.cls-13{fill:url(#linear-gradient-4);}.cls-14{fill:url(#linear-gradient-5);}.cls-15{fill:url(#linear-gradient-6);}.cls-16{fill:url(#linear-gradient-7);}.cls-17{fill:url(#linear-gradient-8);}.cls-18{fill:url(#linear-gradient-9);}.cls-19{fill:url(#linear-gradient-10);}.cls-20{fill:url(#linear-gradient-11);}.cls-21{fill:url(#linear-gradient-12);}.cls-22{fill:url(#linear-gradient-13);}.cls-23{fill:url(#linear-gradient-14);}.cls-24{fill:url(#linear-gradient-15);}.cls-25{fill:url(#linear-gradient-16);}.cls-26{fill:url(#linear-gradient-17);}.cls-27{fill:url(#linear-gradient-18);}.cls-28{fill:url(#linear-gradient-19);}.cls-29{fill:url(#linear-gradient-20);}.cls-30{fill:url(#linear-gradient-21);}.cls-31{fill:url(#linear-gradient-22);}.cls-32{fill:url(#linear-gradient-23);}.cls-33{fill:url(#linear-gradient-24);}</style><linearGradient id="linear-gradient" x1="252.73" y1="130.59" x2="252.36" y2="234.03" gradientUnits="userSpaceOnUse"><stop offset="0" stop-color="#e78626"/><stop offset="0.43" stop-color="#f4ab14"/><stop offset="0.78" stop-color="#fcc308"/><stop offset="1" stop-color="#ffcc04"/></linearGradient><linearGradient id="linear-gradient-2" x1="212.87" y1="93.12" x2="212.5" y2="196.55" xlink:href="#linear-gradient"/><linearGradient id="linear-gradient-3" x1="372.31" y1="85.61" x2="371.94" y2="189.07" xlink:href="#linear-gradient"/><linearGradient id="linear-gradient-4" x1="204.9" y1="85.62" x2="204.53" y2="189.06" xlink:href="#linear-gradient"/><linearGradient id="linear-gradient-5" x1="220.84" y1="100.61" x2="220.47" y2="204.05" xlink:href="#linear-gradient"/><linearGradient id="linear-gradient-6" x1="228.81" y1="108.11" x2="228.45" y2="211.54" xlink:href="#linear-gradient"/><linearGradient id="linear-gradient-7" x1="332.45" y1="123.09" x2="332.08" y2="226.54" xlink:href="#linear-gradient"/><linearGradient id="linear-gradient-8" x1="340.42" y1="115.59" x2="340.05" y2="219.05" xlink:href="#linear-gradient"/><linearGradient id="linear-gradient-9" x1="364.34" y1="93.11" x2="363.97" y2="196.57" xlink:href="#linear-gradient"/><linearGradient id="linear-gradient-10" x1="324.48" y1="130.58" x2="324.11" y2="234.04" xlink:href="#linear-gradient"/><linearGradient id="linear-gradient-11" x1="348.39" y1="108.1" x2="348.03" y2="211.55" xlink:href="#linear-gradient"/><linearGradient id="linear-gradient-12" x1="356.36" y1="100.6" x2="356" y2="204.06" xlink:href="#linear-gradient"/><linearGradient id="linear-gradient-13" x1="244.76" y1="123.1" x2="244.39" y2="226.53" xlink:href="#linear-gradient"/><linearGradient id="linear-gradient-14" x1="308.53" y1="145.08" x2="308.17" y2="245.55" xlink:href="#linear-gradient"/><linearGradient id="linear-gradient-15" x1="292.58" y1="158.6" x2="292.25" y2="250.11" xlink:href="#linear-gradient"/><linearGradient id="linear-gradient-16" x1="300.55" y1="151.94" x2="300.21" y2="248.53" xlink:href="#linear-gradient"/><linearGradient id="linear-gradient-17" x1="426.93" y1="84.68" x2="425.85" y2="390.09" xlink:href="#linear-gradient"/><linearGradient id="linear-gradient-18" x1="316.5" y1="137.98" x2="316.14" y2="240.86" xlink:href="#linear-gradient"/><linearGradient id="linear-gradient-19" x1="150.59" y1="84.69" x2="149.51" y2="390.11" xlink:href="#linear-gradient"/><linearGradient id="linear-gradient-20" x1="260.7" y1="137.99" x2="260.34" y2="240.85" xlink:href="#linear-gradient"/><linearGradient id="linear-gradient-21" x1="236.79" y1="115.6" x2="236.42" y2="219.04" xlink:href="#linear-gradient"/><linearGradient id="linear-gradient-22" x1="276.63" y1="151.95" x2="276.29" y2="248.52" xlink:href="#linear-gradient"/><linearGradient id="linear-gradient-23" x1="284.6" y1="158.62" x2="284.27" y2="250.1" xlink:href="#linear-gradient"/><linearGradient id="linear-gradient-24" x1="268.67" y1="145.09" x2="268.31" y2="245.54" xlink:href="#linear-gradient"/></defs><g id="Layer_2" data-name="Layer 2"><g id="Layer_1-2" data-name="Layer 1"><rect class="cls-1" width="576.86" height="576.86" rx="32.9"/><text class="cls-2" transform="translate(142.01 533.67)">A <tspan class="cls-3" x="27.94" y="0">S</tspan><tspan x="44.85" y="0">ocial </tspan><tspan class="cls-4" x="118.11" y="0">M</tspan><tspan x="145.57" y="0">a</tspan><tspan class="cls-5" x="161.91" y="0">r</tspan><tspan x="173.14" y="0">ketpla</tspan><tspan class="cls-6" x="260.87" y="0">c</tspan><tspan x="275.86" y="0">e</tspan></text><text class="cls-7" transform="translate(134.53 494.97)">MONEK<tspan class="cls-8" x="230.12" y="0">A</tspan><tspan class="cls-9" x="270.41" y="0">T</tspan></text><polygon class="cls-10" points="250.57 240.55 254.54 244.29 254.54 117.4 250.57 113.66 250.57 240.55"/><polygon class="cls-11" points="214.69 79.93 210.71 76.19 210.71 203.08 214.69 206.82 214.69 79.93"/><polygon class="cls-12" points="374.12 68.7 370.15 72.43 370.15 199.32 374.12 195.59 374.12 68.7"/><polygon class="cls-13" points="202.74 195.59 206.71 199.32 206.71 72.43 202.74 68.7 202.74 195.59"/><polygon class="cls-14" points="222.66 87.42 218.68 83.69 218.68 210.58 222.66 214.31 222.66 87.42"/><polygon class="cls-15" points="230.63 94.92 226.65 91.18 226.65 218.07 230.63 221.81 230.63 94.92"/><polygon class="cls-16" points="334.26 106.17 330.29 109.91 330.29 236.8 334.26 233.06 334.26 106.17"/><polygon class="cls-17" points="342.24 98.67 338.26 102.41 338.26 229.3 342.24 225.56 342.24 98.67"/><polygon class="cls-18" points="366.15 76.19 362.18 79.93 362.18 206.82 366.15 203.08 366.15 76.19"/><polygon class="cls-19" points="326.29 113.66 322.32 117.4 322.32 244.29 326.29 240.55 326.29 113.66"/><polygon class="cls-20" points="350.21 91.18 346.23 94.92 346.23 221.81 350.21 218.07 350.21 91.18"/><polygon class="cls-21" points="358.18 83.69 354.2 87.42 354.2 214.31 358.18 210.58 358.18 83.69"/><polygon class="cls-22" points="246.57 109.91 242.6 106.17 242.6 233.06 246.57 236.8 246.57 109.91"/><path class="cls-23" d="M310.35,128.65l-4,3.74V255.51c.36-.15.71-.29,1.06-.45.73-.34,1.44-.71,2.16-1.08.25-.14.5-.29.76-.42Z"/><path class="cls-24" d="M294.4,143.64l-4,3.74v111.8h.15c.76,0,1.51-.1,2.27-.18l1.55-.17Z"/><path class="cls-25" d="M302.38,136.15l-4,3.73V258.1c.25-.05.49-.09.73-.15.79-.19,1.56-.42,2.34-.65l.91-.29Z"/><path class="cls-26" d="M429.45,34.72h-1.78c-.56,0-1.09.06-1.64.08l-1.16.06a45.23,45.23,0,0,0-32.26,16.46L378.12,64.94V191.83l4.21-4V375.05a45.34,45.34,0,0,0,45.34,45.34h1.78a45.33,45.33,0,0,0,45.33-45.34v-295A45.33,45.33,0,0,0,429.45,34.72Z"/><path class="cls-27" d="M318.32,121.16l-4,3.74V251.06c.27-.19.55-.37.82-.57q1-.72,1.92-1.5.62-.51,1.23-1.05Z"/><path class="cls-28" d="M198.74,64.94,184.25,51.32A45.21,45.21,0,0,0,152,34.86c-.38,0-.77,0-1.16-.06-.54,0-1.08-.08-1.63-.08h-1.79a45.34,45.34,0,0,0-45.33,45.34v295a45.34,45.34,0,0,0,45.33,45.34h1.79a45.34,45.34,0,0,0,45.33-45.34V187.87l4.21,4Z"/><path class="cls-29" d="M262.52,124.9l-4-3.74V247.94c.41.36.82.71,1.24,1.05.63.52,1.26,1,1.91,1.5.27.2.55.38.83.57Z"/><polygon class="cls-30" points="238.6 102.41 234.63 98.67 234.63 225.56 238.6 229.3 238.6 102.41"/><path class="cls-31" d="M278.46,139.89l-4-3.74V257l.9.29c.78.23,1.55.46,2.34.65.24.06.49.1.73.15Z"/><path class="cls-32" d="M286.43,147.38l-4-3.74V258.82L284,259c.76.08,1.51.15,2.27.18h.15Z"/><path class="cls-33" d="M270.49,132.39l-4-3.74V253.56c.26.13.51.28.77.42.71.37,1.42.74,2.15,1.08.35.16.71.3,1.06.45Z"/></g></g></svg>