<svg xmlns="http://www.w3.org/2000/svg" viewBox="0 0 60.23 60.23"><defs><style>.cls-1,.cls-4{fill:#ffcc04;}.cls-1{stroke:#412414;stroke-miterlimit:10;stroke-width:2px;}.cls-2{fill:#fff;}.cls-3{fill:#412414;}.cls-5{fill:#faa71b;}</style></defs><g id="Layer_2" data-name="Layer 2"><g id="Layer_1-2" data-name="Layer 1"><circle class="cls-1" cx="30.11" cy="30.11" r="29.11"/><path class="cls-2" d="M45.51,41.43c-.38-2.54-.71-3.51-4.23-3.91-1.34-.16-5-.53-6.32-1.3s-1.14-4.64-1.14-4.64H26.44s.21,3.86-1.14,4.64-5,1.14-6.32,1.3c-3.53.41-3.85,1.37-4.24,3.91a39.43,39.43,0,0,0-.32,4.76H45.84A40.45,40.45,0,0,0,45.51,41.43Z"/><path class="cls-3" d="M13.11,46.19a1.24,1.24,0,0,1,0-.27,38.28,38.28,0,0,1,.34-4.68c.46-3,1.13-4.51,5.35-5l.31,0c1.23-.14,4.5-.52,5.5-1.09.35-.31.6-2,.52-3.47a1.29,1.29,0,0,1,.35-.95,1.26,1.26,0,0,1,.93-.4h7.38a1.28,1.28,0,0,1,1.28,1.35,7,7,0,0,0,.49,3.46c1,.59,4.45,1,5.57,1.11l.26,0c4.22.48,4.9,2,5.36,5a39.79,39.79,0,0,1,.33,4.95,1.26,1.26,0,0,1-.37.9,1.23,1.23,0,0,1-.9.38H14.39A1.28,1.28,0,0,1,13.11,46.19Zm31.14-4.57c-.33-2.18-.39-2.52-3.12-2.83l-.26,0c-2.63-.3-5.23-.68-6.55-1.43s-1.72-2.94-1.79-4.47H27.72c-.06,1.53-.41,3.68-1.79,4.47S22,38.45,19.44,38.75l-.32,0c-2.73.31-2.78.65-3.11,2.83a30.87,30.87,0,0,0-.28,3.29H44.52A30.74,30.74,0,0,0,44.25,41.62Z"/><path class="cls-4" d="M30.05,39.1S25.71,36,25.3,36.22c-1.35.77-5,1.14-6.32,1.3-3.53.41-3.85,1.37-4.24,3.91a39.43,39.43,0,0,0-.32,4.76H45.84a40.45,40.45,0,0,0-.33-4.76c-.38-2.54-.71-3.51-4.23-3.91-1.34-.16-5-.53-6.32-1.3C34.55,36,30.05,39.1,30.05,39.1Z"/><path class="cls-3" d="M13.11,46.19a1.24,1.24,0,0,1,0-.27,38.28,38.28,0,0,1,.34-4.68c.46-3,1.13-4.51,5.35-5l.31,0c1.23-.14,4.5-.52,5.52-1.1a1.44,1.44,0,0,1,.7-.19c.35,0,1,0,4.7,2.62,3.85-2.62,4.49-2.62,4.84-2.62a1.52,1.52,0,0,1,.69.19c1,.59,4.45,1,5.57,1.11l.26,0c4.22.48,4.9,2,5.36,5a39.79,39.79,0,0,1,.33,4.95,1.26,1.26,0,0,1-.37.9,1.23,1.23,0,0,1-.9.38H14.39A1.28,1.28,0,0,1,13.11,46.19Zm31.14-4.57c-.33-2.18-.39-2.52-3.12-2.83l-.26,0a25.08,25.08,0,0,1-6-1.18,46.2,46.2,0,0,0-4.06,2.57,1.26,1.26,0,0,1-1.47,0,46.28,46.28,0,0,0-3.91-2.56,25.17,25.17,0,0,1-6,1.17l-.32,0c-2.73.31-2.78.65-3.11,2.83a30.87,30.87,0,0,0-.28,3.29H44.52A30.74,30.74,0,0,0,44.25,41.62Z"/><path class="cls-5" d="M22.85,37h0c-1.47.28-3.08.45-3.87.55-3.53.41-3.85,1.37-4.24,3.91a39.43,39.43,0,0,0-.32,4.76H29.13Z"/><path class="cls-3" d="M13.11,46.19a1.24,1.24,0,0,1,0-.27,38.28,38.28,0,0,1,.34-4.68c.46-3,1.13-4.51,5.35-5l.34,0c.83-.1,2.2-.26,3.43-.5a1.28,1.28,0,0,1,1.3.54l6.29,9.22a1.28,1.28,0,0,1,.08,1.32,1.29,1.29,0,0,1-1.14.68H14.39A1.28,1.28,0,0,1,13.11,46.19Zm9.15-7.82c-1.07.18-2.11.3-2.79.38l-.35,0c-2.73.31-2.78.65-3.11,2.83a30.87,30.87,0,0,0-.28,3.29h11Z"/><path class="cls-5" d="M45.84,46.19a40.45,40.45,0,0,0-.33-4.76c-.38-2.54-.71-3.51-4.23-3.91-.8-.1-2.41-.27-3.87-.55h0l-6.29,9.22Z"/><path class="cls-3" d="M29.82,46.19a1.27,1.27,0,0,1,.37-.9l6.16-9a1.27,1.27,0,0,1,1.31-.54c1.22.24,2.6.4,3.42.5l.34,0c4.22.48,4.9,2,5.36,5a39.79,39.79,0,0,1,.33,4.95,1.26,1.26,0,0,1-.37.9,1.23,1.23,0,0,1-.9.38H31.1A1.28,1.28,0,0,1,29.82,46.19Zm14.43-4.57c-.33-2.18-.39-2.52-3.12-2.83l-.35,0c-.68-.08-1.72-.2-2.78-.38l-4.46,6.54h11A30.74,30.74,0,0,0,44.25,41.62Z"/><path class="cls-5" d="M39.61,23.38A16.69,16.69,0,0,0,40,19.91a9.88,9.88,0,0,0-19.75,0,15.87,15.87,0,0,0,.41,3.45,2.27,2.27,0,0,0-.42,2.31A2.24,2.24,0,0,0,22,27.3c1.64,3.46,4.38,6.31,8.13,6.31s6.57-2.85,8.17-6.31a2.47,2.47,0,0,0,1.31-3.92Z"/><path class="cls-3" d="M21.11,28.39A3.67,3.67,0,0,1,19,26.06a3.77,3.77,0,0,1,.27-3A16.91,16.91,0,0,1,19,19.91a11.16,11.16,0,0,1,22.31,0A16.89,16.89,0,0,1,41,23.07a3.72,3.72,0,0,1,.26,3,3.67,3.67,0,0,1-2,2.31c-2.11,4.21-5.32,6.52-9.07,6.52S23.25,32.53,21.11,28.39Zm.42-8.48a14.85,14.85,0,0,0,.38,3.18,1.29,1.29,0,0,1-.35,1.18,1,1,0,0,0-.1,1,1,1,0,0,0,.68.75,1.29,1.29,0,0,1,1,.72c1,2.09,3.2,5.58,7,5.58s6-3.49,7-5.57a1.28,1.28,0,0,1,1-.73,1,1,0,0,0,.68-.75,1.08,1.08,0,0,0-.1-1,1.3,1.3,0,0,1-.34-1.17,15.53,15.53,0,0,0,.36-3.2,8.6,8.6,0,1,0-17.19,0Z"/></g></g></svg>