<svg xmlns="http://www.w3.org/2000/svg" viewBox="0 0 133.91 145.55"><defs><style>.cls-1{fill:#1a3b4a;}.cls-2{fill:#ffcc04;}.cls-3{fill:#faa71b;}.cls-4{fill:#fff;}.cls-5{fill:#f3eae5;}.cls-6{fill:#f8982d;}.cls-7{font-size:20px;fill:#231f20;font-family:MyriadPro-BoldCond, Myriad Pro;font-weight:700;letter-spacing:0.28em;}.cls-8{letter-spacing:0.25em;}.cls-9{letter-spacing:0.3em;}</style></defs><g id="Layer_2" data-name="Layer 2"><g id="Layer_1-2" data-name="Layer 1"><path class="cls-1" d="M18.78,9.66c0-3,.24-8.38-3.48-9.47C10.69-1.14,9.43,4.74,9.53,8c0,1.29,2,1.29,2,0a9.23,9.23,0,0,1,.59-4.23c.64-1.45,2-2.45,3.37-1.17,1.68,1.55,1.3,5,1.29,7a1,1,0,0,0,2,0Z" transform="translate(0 0)"/><path class="cls-1" d="M36.37,9.66c0-3,.24-8.38-3.49-9.47C28.28-1.14,27,4.74,27.12,8a1,1,0,0,0,2,0A9.1,9.1,0,0,1,29.7,3.8c.64-1.45,2-2.45,3.37-1.17,1.69,1.55,1.3,5,1.3,7a1,1,0,0,0,2,0Z" transform="translate(0 0)"/><path class="cls-1" d="M54,9.66c0-3,.24-8.38-3.48-9.47C45.94-1.14,44.68,4.74,44.78,8c0,1.29,2,1.29,2,0a9.23,9.23,0,0,1,.59-4.23c.64-1.45,2-2.45,3.37-1.17,1.68,1.55,1.3,5,1.29,7a1,1,0,0,0,2,0Z" transform="translate(0 0)"/><path class="cls-1" d="M71.62,9.66c0-3,.24-8.38-3.49-9.47C63.53-1.14,62.27,4.74,62.37,8a1,1,0,0,0,2,0A9.1,9.1,0,0,1,65,3.8c.64-1.45,2-2.45,3.37-1.17,1.69,1.55,1.3,5,1.3,7a1,1,0,0,0,2,0Z" transform="translate(0 0)"/><path class="cls-1" d="M89.16,9.66c0-3,.24-8.38-3.49-9.47C81.07-1.14,79.81,4.74,79.91,8c0,1.29,2,1.29,2,0a9.1,9.1,0,0,1,.58-4.23c.65-1.45,2-2.45,3.38-1.17,1.68,1.55,1.29,5,1.29,7a1,1,0,0,0,2,0Z" transform="translate(0 0)"/><path class="cls-1" d="M106.74,9.66c0-3,.24-8.38-3.48-9.47C98.65-1.14,97.39,4.74,97.49,8c0,1.29,2,1.29,2,0a9.1,9.1,0,0,1,.59-4.23c.64-1.45,2-2.45,3.37-1.17,1.68,1.55,1.3,5,1.29,7a1,1,0,0,0,2,0Z" transform="translate(0 0)"/><path class="cls-1" d="M124.1,9.66c0-3,.24-8.38-3.49-9.47C116-1.14,114.75,4.74,114.85,8a1,1,0,0,0,2,0,9.1,9.1,0,0,1,.58-4.23c.65-1.45,2-2.45,3.37-1.17,1.69,1.55,1.3,5,1.3,7a1,1,0,0,0,2,0Z" transform="translate(0 0)"/><polygon class="cls-2" points="130.17 80.03 128.41 80.3 128.41 87.16 81.91 87.16 81.91 63.2 16.66 72.9 16.66 91.41 5.25 91.41 8.8 144.35 133.91 135.98 130.17 80.03"/><polygon class="cls-3" points="121.16 89.66 121.16 16.05 111.41 15.26 111.41 65.91 5.63 65.91 0 135.43 124.98 145.55 129.51 89.66 121.16 89.66"/><rect class="cls-4" x="5.41" y="5.41" width="125.39" height="128.77"/><rect class="cls-5" x="5.41" y="5.41" width="125.39" height="18"/><rect class="cls-6" x="5.41" y="5.41" width="125.39" height="11.5"/><circle class="cls-1" cx="17.41" cy="10.41" r="3.33"/><circle class="cls-1" cx="35.07" cy="10.41" r="3.33"/><path class="cls-1" d="M56.07,10.41a3.33,3.33,0,1,1-3.33-3.34A3.33,3.33,0,0,1,56.07,10.41Z" transform="translate(0 0)"/><path class="cls-1" d="M73.74,10.41a3.34,3.34,0,1,1-3.33-3.34A3.33,3.33,0,0,1,73.74,10.41Z" transform="translate(0 0)"/><circle class="cls-1" cx="88.07" cy="10.41" r="3.33"/><path class="cls-1" d="M109.07,10.41a3.33,3.33,0,1,1-3.33-3.33A3.33,3.33,0,0,1,109.07,10.41Z" transform="translate(0 0)"/><circle class="cls-1" cx="123.41" cy="10.41" r="3.33"/><path class="cls-1" d="M15.3.19c-2.37-.68-3.85.55-4.72,2.34H13a1.7,1.7,0,0,1,2.47.1c1.68,1.55,1.3,5,1.29,7a1,1,0,0,0,2,0C18.79,6.66,19,1.28,15.3.19Z" transform="translate(0 0)"/><path class="cls-1" d="M32.88.19C30.3-.56,28.77,1,27.94,3h2.21a1.8,1.8,0,0,1,2.92-.4c1.69,1.55,1.3,5,1.3,7a1,1,0,0,0,2,0C36.37,6.66,36.61,1.28,32.88.19Z" transform="translate(0 0)"/><path class="cls-1" d="M50.55.19c-2.84-.82-4.41,1.1-5.17,3.47h2.06c.67-1.37,2-2.27,3.3-1,1.68,1.55,1.3,5,1.29,7a1,1,0,0,0,2,0C54,6.66,54.27,1.28,50.55.19Z" transform="translate(0 0)"/><path class="cls-1" d="M68.13.19a3.58,3.58,0,0,0-4.37,1.72h2.15v.57a1.69,1.69,0,0,1,2.41.15c1.69,1.55,1.3,5,1.3,7a1,1,0,0,0,2,0C71.62,6.66,71.86,1.28,68.13.19Z" transform="translate(0 0)"/><path class="cls-1" d="M85.67.19c-2.68-.78-4.23.91-5,3.09h2.13c.7-1.14,1.88-1.77,3.1-.65,1.68,1.55,1.29,5,1.29,7a1,1,0,0,0,2,0C89.17,6.66,89.4,1.28,85.67.19Z" transform="translate(0 0)"/><path class="cls-1" d="M103.26.19c-2.69-.78-4.23.91-5,3.09h2.13c.71-1.14,1.89-1.77,3.1-.65,1.68,1.55,1.3,5,1.29,7a1,1,0,0,0,2,0C106.75,6.66,107,1.28,103.26.19Z" transform="translate(0 0)"/><path class="cls-1" d="M120.61.19c-2.48-.71-4,.66-4.83,2.59h2.3a1.74,1.74,0,0,1,2.72-.15c1.69,1.55,1.3,5,1.3,7a1,1,0,0,0,2,0C124.1,6.66,124.34,1.28,120.61.19Z" transform="translate(0 0)"/><rect class="cls-5" x="13.42" y="48.16" width="109.36" height="6.75"/><rect class="cls-5" x="13.42" y="64.41" width="109.36" height="6.75"/><rect class="cls-5" x="13.42" y="79.66" width="109.36" height="6.75"/><rect class="cls-5" x="13.42" y="95.91" width="109.36" height="6.75"/><rect class="cls-5" x="105.91" y="113.91" width="24.89" height="20.27"/><polygon class="cls-4" points="105.91 134.18 130.8 134.18 130.8 113.91 105.91 134.18"/><rect class="cls-3" x="14.16" y="27.91" width="16" height="16"/><rect class="cls-2" x="35.07" y="27.91" width="16" height="16"/><text class="cls-7" transform="translate(78.41 42.91)">V<tspan class="cls-8" x="14.72" y="0">A</tspan><tspan class="cls-9" x="28.88" y="0">T</tspan></text></g></g></svg>