<svg xmlns="http://www.w3.org/2000/svg" xmlns:xlink="http://www.w3.org/1999/xlink" viewBox="0 0 81.13 57.35"><defs><style>.cls-1{fill:none;stroke:#412414;stroke-miterlimit:10;stroke-width:3px;}.cls-2{fill:#f89722;}.cls-3{fill:#b25b27;}.cls-4{fill:#faa71b;}.cls-5{fill:#ffcc04;}.cls-6{fill:#faa652;}.cls-7{fill:#cb6f28;}.cls-8{fill:#e0822c;}.cls-9{fill:#f89a30;}.cls-10{fill:#feca7e;}.cls-11{fill:#ffd8a4;}.cls-12{fill:url(#linear-gradient);}.cls-13{fill:url(#linear-gradient-2);}.cls-14{fill:url(#linear-gradient-3);}.cls-15{fill:url(#linear-gradient-4);}.cls-16{fill:url(#linear-gradient-5);}.cls-17{fill:url(#linear-gradient-6);}.cls-18{fill:url(#linear-gradient-7);}.cls-19{fill:url(#linear-gradient-8);}.cls-20{fill:url(#linear-gradient-9);}.cls-21{fill:url(#linear-gradient-10);}.cls-22{fill:url(#linear-gradient-11);}.cls-23{fill:url(#linear-gradient-12);}.cls-24{fill:url(#linear-gradient-13);}.cls-25{fill:url(#linear-gradient-14);}.cls-26{fill:url(#linear-gradient-15);}.cls-27{fill:url(#linear-gradient-16);}.cls-28{fill:url(#linear-gradient-17);}.cls-29{fill:url(#linear-gradient-18);}.cls-30{fill:url(#linear-gradient-19);}.cls-31{fill:url(#linear-gradient-20);}.cls-32{fill:url(#linear-gradient-21);}.cls-33{fill:url(#linear-gradient-22);}.cls-34{fill:url(#linear-gradient-23);}.cls-35{fill:url(#linear-gradient-24);}</style><linearGradient id="linear-gradient" x1="9.54" y1="8.94" x2="9.53" y2="10.77" gradientUnits="userSpaceOnUse"><stop offset="0" stop-color="#e78626"/><stop offset="0.43" stop-color="#f4ab14"/><stop offset="0.78" stop-color="#fcc308"/><stop offset="1" stop-color="#ffcc04"/></linearGradient><linearGradient id="linear-gradient-2" x1="8.83" y1="8.27" x2="8.83" y2="10.1" xlink:href="#linear-gradient"/><linearGradient id="linear-gradient-3" x1="11.66" y1="8.14" x2="11.65" y2="9.97" xlink:href="#linear-gradient"/><linearGradient id="linear-gradient-4" x1="8.69" y1="8.14" x2="8.69" y2="9.97" xlink:href="#linear-gradient"/><linearGradient id="linear-gradient-5" x1="8.98" y1="8.41" x2="8.97" y2="10.24" xlink:href="#linear-gradient"/><linearGradient id="linear-gradient-6" x1="9.12" y1="8.54" x2="9.11" y2="10.37" xlink:href="#linear-gradient"/><linearGradient id="linear-gradient-7" x1="10.95" y1="8.8" x2="10.94" y2="10.63" xlink:href="#linear-gradient"/><linearGradient id="linear-gradient-8" x1="11.09" y1="8.67" x2="11.09" y2="10.5" xlink:href="#linear-gradient"/><linearGradient id="linear-gradient-9" x1="11.51" y1="8.27" x2="11.51" y2="10.1" xlink:href="#linear-gradient"/><linearGradient id="linear-gradient-10" x1="10.81" y1="8.94" x2="10.8" y2="10.77" xlink:href="#linear-gradient"/><linearGradient id="linear-gradient-11" x1="11.23" y1="8.54" x2="11.23" y2="10.37" xlink:href="#linear-gradient"/><linearGradient id="linear-gradient-12" x1="11.37" y1="8.41" x2="11.37" y2="10.24" xlink:href="#linear-gradient"/><linearGradient id="linear-gradient-13" x1="9.4" y1="8.8" x2="9.39" y2="10.63" xlink:href="#linear-gradient"/><linearGradient id="linear-gradient-14" x1="10.53" y1="9.19" x2="10.52" y2="10.97" xlink:href="#linear-gradient"/><linearGradient id="linear-gradient-15" x1="10.25" y1="9.43" x2="10.24" y2="11.05" xlink:href="#linear-gradient"/><linearGradient id="linear-gradient-16" x1="10.39" y1="9.31" x2="10.38" y2="11.02" xlink:href="#linear-gradient"/><linearGradient id="linear-gradient-17" x1="12.62" y1="8.12" x2="12.6" y2="13.53" xlink:href="#linear-gradient"/><linearGradient id="linear-gradient-18" x1="10.67" y1="9.07" x2="10.66" y2="10.89" xlink:href="#linear-gradient"/><linearGradient id="linear-gradient-19" x1="7.73" y1="8.12" x2="7.71" y2="13.53" xlink:href="#linear-gradient"/><linearGradient id="linear-gradient-20" x1="9.68" y1="9.07" x2="9.67" y2="10.89" xlink:href="#linear-gradient"/><linearGradient id="linear-gradient-21" x1="9.26" y1="8.67" x2="9.25" y2="10.5" xlink:href="#linear-gradient"/><linearGradient id="linear-gradient-22" x1="9.96" y1="9.31" x2="9.96" y2="11.02" xlink:href="#linear-gradient"/><linearGradient id="linear-gradient-23" x1="10.1" y1="9.43" x2="10.1" y2="11.05" xlink:href="#linear-gradient"/><linearGradient id="linear-gradient-24" x1="9.82" y1="9.19" x2="9.82" y2="10.97" xlink:href="#linear-gradient"/></defs><g id="Layer_2" data-name="Layer 2"><g id="Layer_1-2" data-name="Layer 1"><rect class="cls-1" x="1.5" y="1.5" width="78.13" height="54.35" rx="1.24"/><rect class="cls-2" x="10.52" y="1.5" width="68.18" height="54.35" rx="1.24"/><rect class="cls-3" x="8.19" y="1.5" width="68.18" height="54.35" rx="1.24"/><rect class="cls-4" x="4.76" y="1.5" width="68.18" height="54.35" rx="1.24"/><rect class="cls-5" x="2.42" y="1.5" width="68.18" height="54.35" rx="1.24"/><path class="cls-6" d="M65.75,53.58H64.64a.2.2,0,0,1,0-.4h1.11a2,2,0,0,0,.8-.17.2.2,0,0,1,.26.11.19.19,0,0,1-.1.26A2.46,2.46,0,0,1,65.75,53.58Zm-3.12,0h-2a.2.2,0,1,1,0-.4h2a.2.2,0,0,1,0,.4Zm-4,0h-2a.2.2,0,0,1,0-.4h2a.2.2,0,0,1,0,.4Zm-4,0h-2a.2.2,0,0,1,0-.4h2a.2.2,0,1,1,0,.4Zm-4,0h-2a.2.2,0,0,1,0-.4h2a.2.2,0,1,1,0,.4Zm-4,0h-2a.2.2,0,0,1,0-.4h2a.2.2,0,0,1,0,.4Zm-4,0h-2a.2.2,0,0,1,0-.4h2a.2.2,0,0,1,0,.4Zm-4,0h-2a.2.2,0,1,1,0-.4h2a.2.2,0,0,1,0,.4Zm-4,0h-2a.2.2,0,1,1,0-.4h2a.2.2,0,0,1,0,.4Zm-4,0h-2a.2.2,0,0,1,0-.4h2a.2.2,0,0,1,0,.4Zm-4,0h-2a.2.2,0,0,1,0-.4h2a.2.2,0,0,1,0,.4Zm-4,0h-2a.2.2,0,1,1,0-.4h2a.2.2,0,0,1,0,.4Zm-4,0h-2a.2.2,0,0,1,0-.4h2a.2.2,0,0,1,0,.4Zm-4,0h-2a.2.2,0,1,1,0-.4h2a.2.2,0,0,1,0,.4Zm-4,0h-2a.2.2,0,0,1,0-.4h2a.2.2,0,0,1,0,.4Zm-4,0h-2a.2.2,0,0,1,0-.4h2a.2.2,0,1,1,0,.4ZM67.9,51.93h-.05a.21.21,0,0,1-.15-.24,1.86,1.86,0,0,0,.07-.52V49.72a.2.2,0,0,1,.4,0v1.44a2.25,2.25,0,0,1-.08.62A.19.19,0,0,1,67.9,51.93Zm.07-4a.2.2,0,0,1-.2-.2v-2a.2.2,0,0,1,.4,0v2A.2.2,0,0,1,68,47.91Zm0-4a.2.2,0,0,1-.2-.2v-2a.2.2,0,1,1,.4,0v2A.2.2,0,0,1,68,43.88Zm0-4a.2.2,0,0,1-.2-.21v-2a.2.2,0,1,1,.4,0v2A.2.2,0,0,1,68,39.86Zm0-4a.2.2,0,0,1-.2-.2v-2a.2.2,0,1,1,.4,0v2A.2.2,0,0,1,68,35.83Zm0-4a.2.2,0,0,1-.2-.2v-2a.2.2,0,0,1,.4,0v2A.2.2,0,0,1,68,31.8Zm0-4a.2.2,0,0,1-.2-.2v-2a.2.2,0,0,1,.4,0v2A.2.2,0,0,1,68,27.78Zm0-4a.2.2,0,0,1-.2-.2v-2a.2.2,0,1,1,.4,0v2A.2.2,0,0,1,68,23.75Zm0-4a.2.2,0,0,1-.2-.2v-2a.2.2,0,1,1,.4,0v2A.2.2,0,0,1,68,19.73Zm0-4a.2.2,0,0,1-.2-.2v-2a.2.2,0,1,1,.4,0v2A.2.2,0,0,1,68,15.7Zm0-4a.2.2,0,0,1-.2-.21v-2a.2.2,0,1,1,.4,0v2A.2.2,0,0,1,68,11.68Zm0-4a.2.2,0,0,1-.2-.2V6.19a1.93,1.93,0,0,0-.12-.67.21.21,0,0,1,.13-.26.2.2,0,0,1,.25.12,2.27,2.27,0,0,1,.14.81V7.45A.2.2,0,0,1,68,7.65ZM66.46,4.29h-.07a2,2,0,0,0-.64-.11H64.46a.2.2,0,0,1,0-.4h1.29a2.27,2.27,0,0,1,.77.13.2.2,0,0,1,.13.25A.2.2,0,0,1,66.46,4.29Zm-4-.12h-2a.2.2,0,0,1,0-.4h2a.2.2,0,1,1,0,.4Zm-4,0h-2a.2.2,0,0,1,0-.4h2a.2.2,0,0,1,0,.4Zm-4,0h-2a.2.2,0,0,1,0-.4h2a.2.2,0,1,1,0,.4Zm-4,0h-2a.2.2,0,0,1,0-.4h2a.2.2,0,1,1,0,.4Zm-4,0h-2a.2.2,0,0,1,0-.4h2a.2.2,0,0,1,0,.4Zm-4,0h-2a.2.2,0,0,1,0-.4h2a.2.2,0,1,1,0,.4Zm-4,0h-2a.2.2,0,0,1,0-.4h2a.2.2,0,1,1,0,.4Zm-4,0h-2a.2.2,0,0,1,0-.4h2a.2.2,0,0,1,0,.4Zm-4,0h-2a.2.2,0,0,1,0-.4h2a.2.2,0,1,1,0,.4Zm-4,0h-2a.2.2,0,0,1,0-.4h2a.2.2,0,1,1,0,.4Zm-4,0h-2a.2.2,0,0,1,0-.4h2a.2.2,0,1,1,0,.4Zm-4,0h-2a.2.2,0,0,1,0-.4h2a.2.2,0,0,1,0,.4Zm-4,0h-2a.2.2,0,1,1,0-.4h2a.2.2,0,0,1,0,.4Zm-4,0h-2a.2.2,0,1,1,0-.4h2a.2.2,0,1,1,0,.4Zm-4,0h-2a.2.2,0,0,1,0-.4h2a.2.2,0,0,1,0,.4Z"/><path class="cls-7" d="M71.65,38.61h7.12A1.21,1.21,0,0,0,80,37.4V33.61a1.22,1.22,0,0,0-1.21-1.22H71.65Z"/><path class="cls-7" d="M71.65,18.72v6.22h7.12A1.21,1.21,0,0,0,80,23.73V19.94a1.22,1.22,0,0,0-1.21-1.22Z"/><path class="cls-8" d="M70.14,32.41a3.74,3.74,0,0,1,0-7.47h1.51V18.72H62.72a10,10,0,1,0,0,19.91h8.93V32.41Z"/><circle class="cls-7" cx="59.93" cy="28.67" r="3.43"/><path class="cls-9" d="M63.05,28.67a3.13,3.13,0,1,1-3.12-3.12A3.13,3.13,0,0,1,63.05,28.67Z"/><circle class="cls-10" cx="59.27" cy="28.67" r="3.13"/><path class="cls-11" d="M60.57,26.41c.37.65-.19,1.66-1.24,2.25s-2.21.57-2.58-.08.19-1.65,1.25-2.25S60.2,25.77,60.57,26.41Z"/><polygon class="cls-7" points="9.36 10.98 9.43 11.05 9.43 8.8 9.36 8.74 9.36 10.98"/><polygon class="cls-7" points="8.73 8.14 8.66 8.08 8.66 10.32 8.73 10.39 8.73 8.14"/><polygon class="cls-7" points="11.55 7.94 11.48 8.01 11.48 10.25 11.55 10.19 11.55 7.94"/><polygon class="cls-7" points="8.51 10.19 8.59 10.25 8.59 8.01 8.51 7.94 8.51 10.19"/><polygon class="cls-7" points="8.87 8.27 8.8 8.21 8.8 10.45 8.87 10.52 8.87 8.27"/><polygon class="cls-7" points="9.01 8.41 8.94 8.34 8.94 10.59 9.01 10.65 9.01 8.41"/><polygon class="cls-7" points="10.84 8.61 10.77 8.67 10.77 10.92 10.84 10.85 10.84 8.61"/><polygon class="cls-7" points="10.98 8.47 10.91 8.54 10.91 10.79 10.98 10.72 10.98 8.47"/><polygon class="cls-7" points="11.41 8.08 11.34 8.14 11.34 10.39 11.41 10.32 11.41 8.08"/><polygon class="cls-7" points="10.7 8.74 10.63 8.8 10.63 11.05 10.7 10.98 10.7 8.74"/><polygon class="cls-7" points="11.12 8.34 11.05 8.41 11.05 10.65 11.12 10.59 11.12 8.34"/><polygon class="cls-7" points="11.27 8.21 11.2 8.27 11.2 10.52 11.27 10.45 11.27 8.21"/><polygon class="cls-7" points="9.29 8.67 9.22 8.61 9.22 10.85 9.29 10.92 9.29 8.67"/><path class="cls-7" d="M10.42,9l-.07.07v2.18h0l0,0h0Z"/><path class="cls-7" d="M10.14,9.27l-.07.07v2h.07Z"/><path class="cls-7" d="M10.28,9.14l-.07.06v2.09h.07Z"/><path class="cls-7" d="M12.53,7.34h-.09a.85.85,0,0,0-.57.3l-.25.24v2.24l.07-.07v3.31a.8.8,0,0,0,.8.81h0a.8.8,0,0,0,.8-.81V8.14A.8.8,0,0,0,12.53,7.34Z"/><path class="cls-7" d="M10.56,8.87l-.07.07v2.23h0l0,0,0,0Z"/><path class="cls-7" d="M8.44,7.88l-.25-.24a.82.82,0,0,0-.57-.3H7.54a.8.8,0,0,0-.81.8v5.22a.81.81,0,0,0,.81.81h0a.8.8,0,0,0,.8-.81V10.05l.07.07Z"/><path class="cls-7" d="M9.57,8.94,9.5,8.87v2.24l0,0,0,0h0Z"/><polygon class="cls-7" points="9.15 8.54 9.08 8.47 9.08 10.72 9.15 10.79 9.15 8.54"/><path class="cls-7" d="M9.85,9.2l-.07-.06v2.14h.07Z"/><path class="cls-7" d="M10,9.34l-.07-.07v2H10Z"/><path class="cls-7" d="M9.71,9.07,9.64,9v2.21h0l0,0h0Z"/><polygon class="cls-12" points="9.5 10.88 9.57 10.95 9.57 8.7 9.5 8.64 9.5 10.88"/><polygon class="cls-13" points="8.87 8.04 8.8 7.97 8.8 10.22 8.87 10.29 8.87 8.04"/><polygon class="cls-14" points="11.69 7.84 11.62 7.91 11.62 10.15 11.69 10.09 11.69 7.84"/><polygon class="cls-15" points="8.66 10.09 8.73 10.15 8.73 7.91 8.66 7.84 8.66 10.09"/><polygon class="cls-16" points="9.01 8.17 8.94 8.11 8.94 10.35 9.01 10.42 9.01 8.17"/><polygon class="cls-17" points="9.15 8.3 9.08 8.24 9.08 10.48 9.15 10.55 9.15 8.3"/><polygon class="cls-18" points="10.98 8.5 10.91 8.57 10.91 10.82 10.98 10.75 10.98 8.5"/><polygon class="cls-19" points="11.12 8.37 11.05 8.44 11.05 10.68 11.12 10.62 11.12 8.37"/><polygon class="cls-20" points="11.55 7.97 11.48 8.04 11.48 10.29 11.55 10.22 11.55 7.97"/><polygon class="cls-21" points="10.84 8.64 10.77 8.7 10.77 10.95 10.84 10.88 10.84 8.64"/><polygon class="cls-22" points="11.27 8.24 11.2 8.3 11.2 10.55 11.27 10.48 11.27 8.24"/><polygon class="cls-23" points="11.41 8.11 11.34 8.17 11.34 10.42 11.41 10.35 11.41 8.11"/><polygon class="cls-24" points="9.43 8.57 9.36 8.5 9.36 10.75 9.43 10.82 9.43 8.57"/><path class="cls-25" d="M10.56,8.9,10.49,9v2.18h0l0,0h0Z"/><path class="cls-26" d="M10.28,9.17l-.07.06v2h.07Z"/><path class="cls-27" d="M10.42,9l-.07.07v2.09h.07Z"/><path class="cls-28" d="M12.67,7.24h-.08a.83.83,0,0,0-.57.29l-.26.24V10l.07-.07v3.31a.8.8,0,0,0,.81.8h0a.8.8,0,0,0,.8-.8V8A.8.8,0,0,0,12.67,7.24Z"/><path class="cls-29" d="M10.7,8.77l-.07.07v2.23h0l0,0,0,0Z"/><path class="cls-30" d="M8.58,7.77l-.25-.24a.85.85,0,0,0-.57-.29H7.68a.8.8,0,0,0-.81.8v5.22a.8.8,0,0,0,.81.8h0a.8.8,0,0,0,.8-.8V10l.07.07Z"/><path class="cls-31" d="M9.71,8.84l-.07-.07V11l0,0,0,0h0Z"/><polygon class="cls-32" points="9.29 8.44 9.22 8.37 9.22 10.62 9.29 10.68 9.29 8.44"/><path class="cls-33" d="M10,9.1,9.93,9v2.14H10Z"/><path class="cls-34" d="M10.14,9.23l-.07-.06v2h.07Z"/><path class="cls-35" d="M9.85,9,9.78,8.9v2.21h0l0,0h0Z"/></g></g></svg>